<?xml version="1.0" encoding="UTF-8" standalone="no"?>
<!DOCTYPE svg PUBLIC "-//W3C//DTD SVG 1.1//EN"
 "http://www.w3.org/Graphics/SVG/1.1/DTD/svg11.dtd">
<!-- Generated by graphviz version 8.1.0 (20230707.0739)
 -->
<!-- Title: test Pages: 1 -->
<svg width="464pt" height="221pt"
 viewBox="0.00 0.00 463.95 221.00" xmlns="http://www.w3.org/2000/svg" xmlns:xlink="http://www.w3.org/1999/xlink">
<g id="graph0" class="graph" transform="scale(1 1) rotate(0) translate(4 217)">
<title>test</title>
<polygon fill="white" stroke="none" points="-4,4 -4,-217 459.95,-217 459.95,4 -4,4"/>
<!-- a00 -->
<g id="node1" class="node">
<title>a00</title>
<ellipse fill="none" stroke="black" cx="90.95" cy="-195" rx="27" ry="18"/>
<text text-anchor="start" x="81.95" y="-190.95" font-family="Times,serif" font-size="14.00">a</text>
<text text-anchor="start" x="87.95" y="-190.95" font-family="Times,serif" baseline-shift="sub" font-size="14.00">00</text>
</g>
<!-- a10 -->
<g id="node5" class="node">
<title>a10</title>
<ellipse fill="none" stroke="black" cx="304.95" cy="-106.5" rx="27" ry="18"/>
<text text-anchor="start" x="295.95" y="-102.45" font-family="Times,serif" font-size="14.00">a</text>
<text text-anchor="start" x="301.95" y="-102.45" font-family="Times,serif" baseline-shift="sub" font-size="14.00">10</text>
</g>
<!-- a00&#45;&gt;a10 -->
<g id="edge1" class="edge">
<title>a00&#45;&gt;a10</title>
<path fill="none" stroke="black" d="M111.5,-183.12C116.45,-180.83 121.8,-178.62 126.95,-177 172.53,-162.66 189.68,-179.29 232.95,-159 243.15,-154.22 243.21,-149.29 252.2,-142.5 259.88,-136.69 268.49,-130.75 276.49,-125.46"/>
<polygon fill="black" stroke="black" points="278.04,-127.98 284.51,-119.58 274.22,-122.11 278.04,-127.98"/>
<text text-anchor="start" x="251.95" y="-146.7" font-family="Times,serif" font-size="14.00">width</text>
<text text-anchor="start" x="261.7" y="-146.7" font-family="Times,serif" baseline-shift="sub" font-size="14.00">000</text>
</g>
<!-- a11 -->
<g id="node6" class="node">
<title>a11</title>
<ellipse fill="none" stroke="black" cx="53.95" cy="-106.5" rx="27" ry="18"/>
<text text-anchor="start" x="45.7" y="-102.45" font-family="Times,serif" font-size="14.00">a</text>
<text text-anchor="start" x="51.7" y="-102.45" font-family="Times,serif" baseline-shift="sub" font-size="14.00">11</text>
</g>
<!-- a00&#45;&gt;a11 -->
<g id="edge4" class="edge">
<title>a00&#45;&gt;a11</title>
<path fill="none" stroke="black" d="M64.12,-191.22C43.65,-187.54 16.72,-178.96 3.2,-159 -6.05,-145.36 7.53,-132.17 22.95,-122.56"/>
<polygon fill="black" stroke="black" points="24.14,-125.33 31.09,-117.33 20.67,-119.26 24.14,-125.33"/>
<text text-anchor="start" x="3.95" y="-146.7" font-family="Times,serif" font-size="14.00">width</text>
<text text-anchor="start" x="13.7" y="-146.7" font-family="Times,serif" baseline-shift="sub" font-size="14.00">001</text>
</g>
<!-- a12 -->
<g id="node7" class="node">
<title>a12</title>
<ellipse fill="none" stroke="black" cx="152.95" cy="-106.5" rx="27" ry="18"/>
<text text-anchor="start" x="143.95" y="-102.45" font-family="Times,serif" font-size="14.00">a</text>
<text text-anchor="start" x="149.95" y="-102.45" font-family="Times,serif" baseline-shift="sub" font-size="14.00">12</text>
</g>
<!-- a00&#45;&gt;a12 -->
<g id="edge7" class="edge">
<title>a00&#45;&gt;a12</title>
<path fill="none" stroke="black" d="M98.98,-177.62C104.4,-167.19 112.03,-153.6 120.2,-142.5 123.36,-138.2 126.99,-133.86 130.66,-129.77"/>
<polygon fill="black" stroke="black" points="132.83,-132.5 137.1,-122.81 127.72,-127.72 132.83,-132.5"/>
<text text-anchor="start" x="120.95" y="-146.7" font-family="Times,serif" font-size="14.00">width</text>
<text text-anchor="start" x="130.7" y="-146.7" font-family="Times,serif" baseline-shift="sub" font-size="14.00">002</text>
</g>
<!-- a01 -->
<g id="node2" class="node">
<title>a01</title>
<ellipse fill="none" stroke="black" cx="162.95" cy="-195" rx="27" ry="18"/>
<text text-anchor="start" x="153.95" y="-190.95" font-family="Times,serif" font-size="14.00">a</text>
<text text-anchor="start" x="159.95" y="-190.95" font-family="Times,serif" baseline-shift="sub" font-size="14.00">01</text>
</g>
<!-- a01&#45;&gt;a10 -->
<g id="edge2" class="edge">
<title>a01&#45;&gt;a10</title>
<path fill="none" stroke="black" d="M189.75,-192.85C216.66,-190.32 257.77,-182.55 283.95,-159 290.99,-152.66 295.72,-143.62 298.87,-134.88"/>
<polygon fill="black" stroke="black" points="302.45,-136.14 301.99,-125.56 295.75,-134.12 302.45,-136.14"/>
<text text-anchor="start" x="294.95" y="-146.7" font-family="Times,serif" font-size="14.00">width</text>
<text text-anchor="start" x="304.7" y="-146.7" font-family="Times,serif" baseline-shift="sub" font-size="14.00">010</text>
</g>
<!-- a01&#45;&gt;a11 -->
<g id="edge5" class="edge">
<title>a01&#45;&gt;a11</title>
<path fill="none" stroke="black" d="M141.75,-183.66C136.91,-181.39 131.78,-179.06 126.95,-177 106.27,-168.2 96.36,-174.08 79.7,-159 72.34,-152.35 66.82,-143.12 62.82,-134.31"/>
<polygon fill="black" stroke="black" points="65.78,-133.3 58.8,-125.34 59.29,-135.92 65.78,-133.3"/>
<text text-anchor="start" x="79.95" y="-146.7" font-family="Times,serif" font-size="14.00">width</text>
<text text-anchor="start" x="89.7" y="-146.7" font-family="Times,serif" baseline-shift="sub" font-size="14.00">011</text>
</g>
<!-- a01&#45;&gt;a12 -->
<g id="edge8" class="edge">
<title>a01&#45;&gt;a12</title>
<path fill="none" stroke="black" d="M157.91,-177.06C156.43,-171.37 155,-164.96 154.2,-159 153.18,-151.47 152.69,-143.26 152.51,-135.65"/>
<polygon fill="black" stroke="black" points="156,-135.71 152.42,-125.74 149,-135.77 156,-135.71"/>
<text text-anchor="start" x="153.95" y="-146.7" font-family="Times,serif" font-size="14.00">width</text>
<text text-anchor="start" x="163.7" y="-146.7" font-family="Times,serif" baseline-shift="sub" font-size="14.00">012</text>
</g>
<!-- a02 -->
<g id="node3" class="node">
<title>a02</title>
<ellipse fill="none" stroke="black" cx="356.95" cy="-195" rx="27" ry="18"/>
<text text-anchor="start" x="347.95" y="-190.95" font-family="Times,serif" font-size="14.00">a</text>
<text text-anchor="start" x="353.95" y="-190.95" font-family="Times,serif" baseline-shift="sub" font-size="14.00">02</text>
</g>
<!-- a02&#45;&gt;a10 -->
<g id="edge3" class="edge">
<title>a02&#45;&gt;a10</title>
<path fill="none" stroke="black" d="M372.96,-180.58C383.58,-170.01 394.17,-155.02 385.95,-142.5 376.08,-127.48 358.24,-118.88 341.82,-113.96"/>
<polygon fill="black" stroke="black" points="342.88,-110.37 332.33,-111.24 341.12,-117.14 342.88,-110.37"/>
<text text-anchor="start" x="387.95" y="-146.7" font-family="Times,serif" font-size="14.00">width</text>
<text text-anchor="start" x="397.7" y="-146.7" font-family="Times,serif" baseline-shift="sub" font-size="14.00">020</text>
</g>
<!-- a02&#45;&gt;a11 -->
<g id="edge6" class="edge">
<title>a02&#45;&gt;a11</title>
<path fill="none" stroke="black" d="M330,-191.93C297.85,-188.57 243.19,-180.06 201.2,-159 191.12,-153.95 191.9,-147.78 181.95,-142.5 180.88,-141.94 126.73,-127.21 89.21,-117.04"/>
<polygon fill="black" stroke="black" points="90.22,-113.42 79.65,-114.18 88.39,-120.18 90.22,-113.42"/>
<text text-anchor="start" x="200.95" y="-146.7" font-family="Times,serif" font-size="14.00">width</text>
<text text-anchor="start" x="210.7" y="-146.7" font-family="Times,serif" baseline-shift="sub" font-size="14.00">021</text>
</g>
<!-- a02&#45;&gt;a12 -->
<g id="edge9" class="edge">
<title>a02&#45;&gt;a12</title>
<path fill="none" stroke="black" d="M351.31,-177.05C346.6,-165.54 338.73,-150.93 326.95,-142.5 315.92,-134.62 237.9,-121.04 190.15,-113.32"/>
<polygon fill="black" stroke="black" points="190.73,-109.71 180.3,-111.58 189.62,-116.62 190.73,-109.71"/>
<text text-anchor="start" x="340.95" y="-146.7" font-family="Times,serif" font-size="14.00">width</text>
<text text-anchor="start" x="350.7" y="-146.7" font-family="Times,serif" baseline-shift="sub" font-size="14.00">022</text>
</g>
<!-- a03 -->
<g id="node4" class="node">
<title>a03</title>
<ellipse fill="none" stroke="black" cx="428.95" cy="-195" rx="27" ry="18"/>
<text text-anchor="start" x="419.95" y="-190.95" font-family="Times,serif" font-size="14.00">a</text>
<text text-anchor="start" x="425.95" y="-190.95" font-family="Times,serif" baseline-shift="sub" font-size="14.00">03</text>
</g>
<!-- a20 -->
<g id="node8" class="node">
<title>a20</title>
<ellipse fill="none" stroke="black" cx="102.95" cy="-18" rx="27" ry="18"/>
<text text-anchor="middle" x="102.95" y="-12.95" font-family="Times,serif" font-size="14.00">a20</text>
</g>
<!-- a10&#45;&gt;a20 -->
<g id="edge10" class="edge">
<title>a10&#45;&gt;a20</title>
<path fill="none" stroke="black" d="M286.28,-93.26C265.76,-79.96 233.99,-59.81 220.95,-54 206.15,-47.41 167.48,-36.34 138.41,-28.42"/>
<polygon fill="black" stroke="black" points="139.38,-24.79 128.81,-25.55 137.55,-31.54 139.38,-24.79"/>
<text text-anchor="start" x="249.95" y="-58.2" font-family="Times,serif" font-size="14.00">width</text>
<text text-anchor="start" x="259.7" y="-58.2" font-family="Times,serif" baseline-shift="sub" font-size="14.00">100</text>
</g>
<!-- a21 -->
<g id="node9" class="node">
<title>a21</title>
<ellipse fill="none" stroke="black" cx="202.95" cy="-18" rx="27" ry="18"/>
<text text-anchor="middle" x="202.95" y="-12.95" font-family="Times,serif" font-size="14.00">a21</text>
</g>
<!-- a10&#45;&gt;a21 -->
<g id="edge13" class="edge">
<title>a10&#45;&gt;a21</title>
<path fill="none" stroke="black" d="M301.11,-88.35C297.88,-77.34 292.25,-63.39 282.95,-54 270.8,-41.75 253.66,-33.48 238.35,-28.07"/>
<polygon fill="black" stroke="black" points="239.72,-24.51 229.13,-24.76 237.57,-31.17 239.72,-24.51"/>
<text text-anchor="start" x="293.95" y="-58.2" font-family="Times,serif" font-size="14.00">width</text>
<text text-anchor="start" x="303.7" y="-58.2" font-family="Times,serif" baseline-shift="sub" font-size="14.00">101</text>
</g>
<!-- a11&#45;&gt;a20 -->
<g id="edge11" class="edge">
<title>a11&#45;&gt;a20</title>
<path fill="none" stroke="black" d="M50.47,-88.33C49.23,-77.84 49.26,-64.48 54.7,-54 58.69,-46.32 65.22,-39.92 72.21,-34.78"/>
<polygon fill="black" stroke="black" points="73.69,-37.34 80.16,-28.95 69.87,-31.48 73.69,-37.34"/>
<text text-anchor="start" x="54.95" y="-58.2" font-family="Times,serif" font-size="14.00">width</text>
<text text-anchor="start" x="64.7" y="-58.2" font-family="Times,serif" baseline-shift="sub" font-size="14.00">110</text>
</g>
<!-- a11&#45;&gt;a21 -->
<g id="edge14" class="edge">
<title>a11&#45;&gt;a21</title>
<path fill="none" stroke="black" d="M77.34,-97C93.3,-90.73 114.61,-81.42 131.95,-70.5 141.55,-64.45 142.4,-60.87 151.45,-54 158.91,-48.33 167.23,-42.48 174.97,-37.23"/>
<polygon fill="black" stroke="black" points="176.66,-39.64 183.02,-31.17 172.76,-33.83 176.66,-39.64"/>
<text text-anchor="start" x="150.95" y="-58.2" font-family="Times,serif" font-size="14.00">width</text>
<text text-anchor="start" x="160.7" y="-58.2" font-family="Times,serif" baseline-shift="sub" font-size="14.00">111</text>
</g>
<!-- a12&#45;&gt;a20 -->
<g id="edge12" class="edge">
<title>a12&#45;&gt;a20</title>
<path fill="none" stroke="black" d="M130.98,-95.58C120.93,-89.8 109.99,-81.46 104.2,-70.5 100.45,-63.41 99.17,-54.96 99.1,-46.98"/>
<polygon fill="black" stroke="black" points="102.63,-47.37 99.66,-37.2 95.64,-47 102.63,-47.37"/>
<text text-anchor="start" x="104.95" y="-58.2" font-family="Times,serif" font-size="14.00">width</text>
<text text-anchor="start" x="114.7" y="-58.2" font-family="Times,serif" baseline-shift="sub" font-size="14.00">120</text>
</g>
<!-- a12&#45;&gt;a21 -->
<g id="edge15" class="edge">
<title>a12&#45;&gt;a21</title>
<path fill="none" stroke="black" d="M166.44,-90.48C171.39,-84.52 176.79,-77.44 180.95,-70.5 185.53,-62.84 189.65,-54.06 193.06,-45.93"/>
<polygon fill="black" stroke="black" points="196.65,-47.38 197.1,-36.79 190.15,-44.79 196.65,-47.38"/>
<text text-anchor="start" x="188.95" y="-58.2" font-family="Times,serif" font-size="14.00">width</text>
<text text-anchor="start" x="198.7" y="-58.2" font-family="Times,serif" baseline-shift="sub" font-size="14.00">121</text>
</g>
</g>
</svg>
